Coordinates
version=1
nRows=14
nColumns=40
inDegrees=yes

Units are S.I. units (second, meters, Newtons, ...)
If the header above contains a line with 'inDegrees', this indicates whether rotational values are in degrees (yes) or radians (no).

endheader
time	pelvis_tilt	pelvis_list	pelvis_rotation	pelvis_tx	pelvis_ty	pelvis_tz	hip_flexion_r	hip_adduction_r	hip_rotation_r	knee_angle_r	knee_angle_r_beta	ankle_angle_r	subtalar_angle_r	mtp_angle_r	hip_flexion_l	hip_adduction_l	hip_rotation_l	knee_angle_l	knee_angle_l_beta	ankle_angle_l	subtalar_angle_l	mtp_angle_l	lumbar_extension	lumbar_bending	lumbar_rotation	arm_flex_r	arm_add_r	arm_rot_r	elbow_flex_r	pro_sup_r	wrist_flex_r	wrist_dev_r	arm_flex_l	arm_add_l	arm_rot_l	elbow_flex_l	pro_sup_l	wrist_flex_l	wrist_dev_l
      3.37500000	    -15.06169383	      5.19313526	      1.13639163	     -0.47257764	      0.74432739	     -0.72733051	     70.06717364	     -2.28723636	     -3.92263675	     85.26351221	      1.48812902	     19.79187215	      0.00000000	      0.00000000	     73.48346741	     -3.29358775	     -9.99949981	     15.16702731	      0.26471456	    -28.03879122	      0.00000000	      0.00000000	    -12.50650093	     -1.60188161	     -2.92742668	     89.96989918	     -1.69135307	     10.73136997	     53.53299833	     72.61241418	      0.00000000	      0.00000000	     89.95870233	     -7.92784761	      6.63962228	     49.91186622	     80.67854735	      0.00000000	      0.00000000
      3.38000000	    -15.07686423	      5.16332573	      1.10562529	     -0.47263095	      0.74367899	     -0.72735628	     70.14276696	     -2.24314546	     -3.93545305	     85.36515634	      1.48990304	     19.93967383	      0.00000000	      0.00000000	     73.60764277	     -3.36145572	    -10.17677128	     15.32012149	      0.26738656	    -27.93122582	      0.00000000	      0.00000000	    -12.51122451	     -1.58754234	     -2.81123882	     89.96984739	     -1.79670859	     11.08182130	     53.69681486	     68.82804048	      0.00000000	      0.00000000	     89.95878520	     -7.82284112	      7.05285874	     50.05051895	     75.82043877	      0.00000000	      0.00000000
      3.38500000	    -15.07727422	      5.17812854	      1.08453640	     -0.47276104	      0.74311473	     -0.72737562	     70.21483871	     -2.25241548	     -3.93618000	     85.45793398	      1.49152232	     19.94571055	      0.00000000	      0.00000000	     73.61993883	     -3.36888691	    -10.20980398	     15.24006067	      0.26598924	    -28.07768016	      0.00000000	      0.00000000	    -12.53539925	     -1.61283385	     -2.78482495	     89.96983873	     -1.77774377	     11.42810020	     53.82964852	     65.27705500	      0.00000000	      0.00000000	     89.95880629	     -7.79372124	      7.42146147	     50.21427690	     71.02440014	      0.00000000	      0.00000000
      3.39000000	    -15.05624587	      5.13235440	      1.14236259	     -0.47289794	      0.74263543	     -0.72750177	     70.25519268	     -2.30703767	     -4.02666921	     85.55767127	      1.49326306	     19.90156646	      0.00000000	      0.00000000	     73.61424819	     -3.30222950	     -9.93981645	     15.18559360	      0.26503861	    -27.95158132	      0.00000000	      0.00000000	    -12.56571363	     -1.51976932	     -2.88933878	     89.96992485	     -1.61897182	     10.90168710	     53.51167986	     72.36181792	      0.00000000	      0.00000000	     89.95890820	     -7.87371553	      6.56593955	     49.96557330	     80.14445476	      0.00000000	      0.00000000
      3.39500000	    -15.04197114	      5.16035965	      1.10815961	     -0.47302083	      0.74210197	     -0.72750552	     70.32106430	     -2.28601263	     -3.98674778	     85.65927843	      1.49503644	     19.91704960	      0.00000000	      0.00000000	     73.68967582	     -3.34574679	    -10.27113788	     15.28315181	      0.26674132	    -28.01142988	      0.00000000	      0.00000000	    -12.61481216	     -1.57747755	     -2.86273181	     89.96981266	     -1.64459142	     11.65576524	     53.90301453	     62.76819398	      0.00000000	      0.00000000	     89.95892589	     -7.80354124	      7.63094098	     50.35900530	     67.29498244	      0.00000000	      0.00000000
      3.40000000	    -15.02491501	      5.14659632	      1.10829202	     -0.47310562	      0.74159248	     -0.72758766	     70.36766890	     -2.29346053	     -4.01189969	     85.76275961	      1.49684253	     19.87995526	      0.00000000	      0.00000000	     73.64643613	     -3.31347660	    -10.00387125	     15.14878534	      0.26439618	    -27.89567565	      0.00000000	      0.00000000	    -12.65258301	     -1.53561441	     -2.87075733	     89.96988071	     -1.53907900	     11.77542470	     53.92567379	     60.95676416	      0.00000000	      0.00000000	     89.95900955	     -7.82318270	      7.72263651	     50.45883998	     65.27245650	      0.00000000	      0.00000000
      3.40500000	    -15.04714686	      5.14441093	      1.09591070	     -0.47322899	      0.74101730	     -0.72762375	     70.44097617	     -2.28450095	     -4.01992414	     85.82674636	      1.49795931	     19.96993148	      0.00000000	      0.00000000	     73.73512669	     -3.33711187	    -10.12504060	     15.19689610	      0.26523587	    -27.85985038	      0.00000000	      0.00000000	    -12.65870677	     -1.54110763	     -2.79269676	     89.96983289	     -1.59102805	     12.00612771	     54.01398258	     59.31253884	      0.00000000	      0.00000000	     89.95911473	     -7.75977855	      7.86179295	     50.59815950	     63.31629706	      0.00000000	      0.00000000
      3.41000000	    -15.06125529	      5.12103699	      1.08291159	     -0.47337106	      0.74047367	     -0.72762956	     70.51125853	     -2.22481298	     -4.05038738	     85.73641171	      1.49638267	     19.25672874	      0.00000000	      0.00000000	     73.85391885	     -3.37595421	    -10.30349503	     15.31713456	      0.26733443	    -27.81839060	      0.00000000	      0.00000000	    -12.66203233	     -1.52521190	     -2.78130606	     89.96979998	     -1.55429813	     12.38930433	     54.25019585	     55.20297104	      0.00000000	      0.00000000	     89.95908904	     -7.73556775	      8.19038047	     50.84607915	     58.07261651	      0.00000000	      0.00000000
      3.41500000	    -15.07138246	      5.09429762	      1.07143149	     -0.47352921	      0.73990593	     -0.72761717	     70.56995151	     -2.16324256	     -4.04084079	     85.78905294	      1.49730144	     19.39101457	      0.00000000	      0.00000000	     73.97687736	     -3.42303552	    -10.48356481	     15.45278096	      0.26970191	    -27.80249787	      0.00000000	      0.00000000	    -12.64102735	     -1.53472694	     -2.81706669	     89.96976314	     -1.54322188	     12.54786181	     54.34255953	     52.60061745	      0.00000000	      0.00000000	     89.95910332	     -7.72709223	      8.39999028	     50.99038285	     54.89420177	      0.00000000	      0.00000000
      3.42000000	    -15.03195115	      5.10766475	      1.12153284	     -0.47350977	      0.73951611	     -0.72774026	     70.59882399	     -2.26904351	     -4.06657927	     86.09092667	      1.50257013	     20.06310564	      0.00000000	      0.00000000	     73.86800685	     -3.29897362	    -10.09396162	     15.22810409	      0.26578056	    -27.74675558	      0.00000000	      0.00000000	    -12.72971442	     -1.48965354	     -2.90145990	     89.96984182	     -1.36468891	     12.56811329	     54.29172098	     52.56807000	      0.00000000	      0.00000000	     89.95910647	     -7.80010716	      8.31767157	     51.03290296	     54.91767375	      0.00000000	      0.00000000
      3.42500000	    -15.06097958	      5.10548274	      1.13673963	     -0.47359940	      0.73896801	     -0.72774008	     70.66989748	     -2.21950723	     -4.05595673	     85.99017745	      1.50081172	     19.40599953	      0.00000000	      0.00000000	     74.00130577	     -3.31088433	    -10.22996842	     15.37841068	      0.26840390	    -27.65517900	      0.00000000	      0.00000000	    -12.72854675	     -1.49911444	     -2.92722300	     89.96984844	     -1.37091400	     12.57679259	     54.36505942	     51.60994449	      0.00000000	      0.00000000	     89.95919669	     -7.79621138	      8.34703304	     51.13057690	     53.95891120	      0.00000000	      0.00000000
      3.43000000	    -15.08446935	      5.08405948	      1.19304007	     -0.47363504	      0.73852304	     -0.72779160	     70.74309053	     -2.24337505	     -4.05350907	     86.23249948	      1.50504104	     20.21413111	      0.00000000	      0.00000000	     74.07006235	     -3.25667181	    -10.15304208	     15.39956201	      0.26877306	    -27.56686692	      0.00000000	      0.00000000	    -12.72401945	     -1.43283454	     -3.03629141	     89.96990416	     -1.24272787	     11.46832650	     53.64243271	     66.64723142	      0.00000000	      0.00000000	     89.95930857	     -7.98498610	      6.38463914	     50.20239251	     79.99377957	      0.00000000	      0.00000000
      3.43500000	    -15.14243016	      5.07137533	      1.19004762	     -0.47374627	      0.73794818	     -0.72776388	     70.84894691	     -2.18536591	     -4.02983030	     86.30414094	      1.50629142	     20.35660546	      0.00000000	      0.00000000	     74.27012728	     -3.31474939	    -10.47447550	     15.61170196	      0.27247560	    -27.53725309	      0.00000000	      0.00000000	    -12.68086607	     -1.45338143	     -2.97871204	     89.96983409	     -1.34416902	     11.77069453	     53.81659949	     64.04150577	      0.00000000	      0.00000000	     89.95934684	     -7.89073148	      6.87646614	     50.39270367	     74.16722146	      0.00000000	      0.00000000
      3.44000000	    -15.12706145	      5.05880591	      1.23261554	     -0.47386947	      0.73753616	     -0.72776324	     70.87782430	     -2.17545373	     -4.06495475	     86.17880875	      1.50410396	     19.53834982	      0.00000000	      0.00000000	     74.26442560	     -3.26167227	    -10.38843993	     15.55832922	      0.27154407	    -27.48249142	      0.00000000	      0.00000000	    -12.69010384	     -1.47690977	     -3.13041087	     89.96981725	     -1.26026798	     11.19137756	     53.43585504	     72.21841865	      0.00000000	      0.00000000	     89.95946365	     -7.93872104	      6.33787087	     50.19440802	     80.32318080	      0.00000000	      0.00000000
